%TF.GenerationSoftware,KiCad,Pcbnew,(6.0.10-0)*%
%TF.CreationDate,2022-12-28T18:35:23+01:00*%
%TF.ProjectId,seeq,73656571-2e6b-4696-9361-645f70636258,rev?*%
%TF.SameCoordinates,Original*%
%TF.FileFunction,Soldermask,Bot*%
%TF.FilePolarity,Negative*%
%FSLAX46Y46*%
G04 Gerber Fmt 4.6, Leading zero omitted, Abs format (unit mm)*
G04 Created by KiCad (PCBNEW (6.0.10-0)) date 2022-12-28 18:35:23*
%MOMM*%
%LPD*%
G01*
G04 APERTURE LIST*
%ADD10C,4.000000*%
%ADD11C,1.750000*%
%ADD12C,2.500000*%
%ADD13R,1.600000X1.600000*%
%ADD14O,1.600000X1.600000*%
%ADD15C,1.600000*%
%ADD16R,1.800000X1.800000*%
%ADD17C,1.800000*%
%ADD18C,3.200000*%
%ADD19C,6.400000*%
%ADD20R,1.700000X1.700000*%
%ADD21O,1.700000X1.700000*%
%ADD22R,2.000000X2.000000*%
%ADD23C,2.000000*%
%ADD24R,2.000000X3.200000*%
%ADD25O,1.800000X1.800000*%
%ADD26O,1.500000X1.500000*%
%ADD27R,3.500000X1.700000*%
%ADD28R,1.700000X3.500000*%
%ADD29R,1.500000X1.000000*%
%ADD30C,2.800000*%
G04 APERTURE END LIST*
D10*
%TO.C,SW16*%
X182245000Y-93345000D03*
D11*
X177165000Y-93345000D03*
X187325000Y-93345000D03*
D12*
X184785000Y-88265000D03*
X178435000Y-90805000D03*
%TD*%
D10*
%TO.C,SW15*%
X162560000Y-93345000D03*
D11*
X157480000Y-93345000D03*
X167640000Y-93345000D03*
D12*
X165100000Y-88265000D03*
X158750000Y-90805000D03*
%TD*%
D10*
%TO.C,SW14*%
X142875000Y-93345000D03*
D11*
X137795000Y-93345000D03*
X147955000Y-93345000D03*
D12*
X145415000Y-88265000D03*
X139065000Y-90805000D03*
%TD*%
D10*
%TO.C,SW13*%
X123190000Y-93345000D03*
D11*
X118110000Y-93345000D03*
X128270000Y-93345000D03*
D12*
X125730000Y-88265000D03*
X119380000Y-90805000D03*
%TD*%
D10*
%TO.C,SW12*%
X103505000Y-93345000D03*
D11*
X98425000Y-93345000D03*
X108585000Y-93345000D03*
D12*
X106045000Y-88265000D03*
X99695000Y-90805000D03*
%TD*%
D10*
%TO.C,SW11*%
X83820000Y-93345000D03*
D11*
X78740000Y-93345000D03*
X88900000Y-93345000D03*
D12*
X86360000Y-88265000D03*
X80010000Y-90805000D03*
%TD*%
D10*
%TO.C,SW10*%
X64135000Y-93345000D03*
D11*
X59055000Y-93345000D03*
X69215000Y-93345000D03*
D12*
X66675000Y-88265000D03*
X60325000Y-90805000D03*
%TD*%
D10*
%TO.C,SW9*%
X44450000Y-93345000D03*
D11*
X39370000Y-93345000D03*
X49530000Y-93345000D03*
D12*
X46990000Y-88265000D03*
X40640000Y-90805000D03*
%TD*%
D10*
%TO.C,SW8*%
X182245000Y-50800000D03*
D11*
X177165000Y-50800000D03*
X187325000Y-50800000D03*
D12*
X184785000Y-45720000D03*
X178435000Y-48260000D03*
%TD*%
D10*
%TO.C,SW7*%
X162560000Y-50800000D03*
D11*
X157480000Y-50800000D03*
X167640000Y-50800000D03*
D12*
X165100000Y-45720000D03*
X158750000Y-48260000D03*
%TD*%
D10*
%TO.C,SW6*%
X142875000Y-50800000D03*
D11*
X137795000Y-50800000D03*
X147955000Y-50800000D03*
D12*
X145415000Y-45720000D03*
X139065000Y-48260000D03*
%TD*%
D10*
%TO.C,SW5*%
X123190000Y-50800000D03*
D11*
X118110000Y-50800000D03*
X128270000Y-50800000D03*
D12*
X125730000Y-45720000D03*
X119380000Y-48260000D03*
%TD*%
D10*
%TO.C,SW4*%
X103505000Y-50800000D03*
D11*
X98425000Y-50800000D03*
X108585000Y-50800000D03*
D12*
X106045000Y-45720000D03*
X99695000Y-48260000D03*
%TD*%
D10*
%TO.C,SW3*%
X83820000Y-50800000D03*
D11*
X78740000Y-50800000D03*
X88900000Y-50800000D03*
D12*
X86360000Y-45720000D03*
X80010000Y-48260000D03*
%TD*%
D10*
%TO.C,SW2*%
X64135000Y-50800000D03*
D11*
X59055000Y-50800000D03*
X69215000Y-50800000D03*
D12*
X66675000Y-45720000D03*
X60325000Y-48260000D03*
%TD*%
D10*
%TO.C,SW1*%
X44450000Y-50800000D03*
D11*
X39370000Y-50800000D03*
X49530000Y-50800000D03*
D12*
X46990000Y-45720000D03*
X40640000Y-48260000D03*
%TD*%
D13*
%TO.C,D10*%
X78105000Y-62865000D03*
D14*
X70485000Y-62865000D03*
%TD*%
D15*
%TO.C,R10*%
X88900000Y-31750000D03*
D14*
X99060000Y-31750000D03*
%TD*%
D15*
%TO.C,R16*%
X68580000Y-74295000D03*
D14*
X78740000Y-74295000D03*
%TD*%
D13*
%TO.C,U1*%
X208290000Y-93990000D03*
D14*
X208290000Y-96530000D03*
X208290000Y-99070000D03*
X208290000Y-101610000D03*
X215910000Y-101610000D03*
X215910000Y-99070000D03*
X215910000Y-96530000D03*
X215910000Y-93990000D03*
%TD*%
D13*
%TO.C,D31*%
X175895000Y-81280000D03*
D14*
X168275000Y-81280000D03*
%TD*%
D16*
%TO.C,D24*%
X182245000Y-74925000D03*
D17*
X182245000Y-77465000D03*
%TD*%
D16*
%TO.C,D7*%
X162560000Y-32380000D03*
D17*
X162560000Y-34920000D03*
%TD*%
D13*
%TO.C,D33*%
X203200000Y-94615000D03*
D14*
X203200000Y-102235000D03*
%TD*%
D16*
%TO.C,D1*%
X44450000Y-32380000D03*
D17*
X44450000Y-34920000D03*
%TD*%
D16*
%TO.C,D4*%
X103505000Y-32380000D03*
D17*
X103505000Y-34920000D03*
%TD*%
D18*
%TO.C,H4*%
X228600000Y-29845000D03*
%TD*%
D19*
%TO.C,H2*%
X36830000Y-104140000D03*
%TD*%
D13*
%TO.C,D29*%
X136525000Y-81280000D03*
D14*
X128905000Y-81280000D03*
%TD*%
D15*
%TO.C,R11*%
X167640000Y-31750000D03*
D14*
X177800000Y-31750000D03*
%TD*%
D16*
%TO.C,D23*%
X162560000Y-74925000D03*
D17*
X162560000Y-77465000D03*
%TD*%
D15*
%TO.C,R6*%
X108585000Y-31750000D03*
D14*
X118745000Y-31750000D03*
%TD*%
D16*
%TO.C,D8*%
X182245000Y-32380000D03*
D17*
X182245000Y-34920000D03*
%TD*%
D13*
%TO.C,D9*%
X56515000Y-62865000D03*
D14*
X48895000Y-62865000D03*
%TD*%
D13*
%TO.C,D25*%
X57785000Y-81280000D03*
D14*
X50165000Y-81280000D03*
%TD*%
D15*
%TO.C,R15*%
X147955000Y-31115000D03*
D14*
X158115000Y-31115000D03*
%TD*%
D20*
%TO.C,J4*%
X200025000Y-33655000D03*
D21*
X200025000Y-36195000D03*
X200025000Y-38735000D03*
X200025000Y-41275000D03*
%TD*%
D16*
%TO.C,D21*%
X123190000Y-74925000D03*
D17*
X123190000Y-77465000D03*
%TD*%
D16*
%TO.C,D5*%
X123190000Y-32380000D03*
D17*
X123190000Y-34920000D03*
%TD*%
D13*
%TO.C,D13*%
X137160000Y-62865000D03*
D14*
X129540000Y-62865000D03*
%TD*%
D13*
%TO.C,D16*%
X194310000Y-62865000D03*
D14*
X186690000Y-62865000D03*
%TD*%
D15*
%TO.C,R14*%
X69215000Y-31750000D03*
D14*
X79375000Y-31750000D03*
%TD*%
D13*
%TO.C,D30*%
X156210000Y-81280000D03*
D14*
X148590000Y-81280000D03*
%TD*%
D15*
%TO.C,R13*%
X167005000Y-74295000D03*
D14*
X177165000Y-74295000D03*
%TD*%
D16*
%TO.C,D17*%
X44450000Y-74925000D03*
D17*
X44450000Y-77465000D03*
%TD*%
D13*
%TO.C,D28*%
X116840000Y-81280000D03*
D14*
X109220000Y-81280000D03*
%TD*%
D15*
%TO.C,R17*%
X147320000Y-74295000D03*
D14*
X157480000Y-74295000D03*
%TD*%
D15*
%TO.C,R21*%
X127635000Y-74295000D03*
D14*
X137795000Y-74295000D03*
%TD*%
D19*
%TO.C,H1*%
X228600000Y-104140000D03*
%TD*%
D15*
%TO.C,R2*%
X200025000Y-76200000D03*
D14*
X200025000Y-66040000D03*
%TD*%
D13*
%TO.C,D27*%
X97155000Y-81280000D03*
D14*
X89535000Y-81280000D03*
%TD*%
D15*
%TO.C,R5*%
X148590000Y-70485000D03*
D14*
X158750000Y-70485000D03*
%TD*%
D16*
%TO.C,D2*%
X64135000Y-32380000D03*
D17*
X64135000Y-34920000D03*
%TD*%
D15*
%TO.C,R18*%
X49530000Y-31750000D03*
D14*
X59690000Y-31750000D03*
%TD*%
D15*
%TO.C,R8*%
X107950000Y-74295000D03*
D14*
X118110000Y-74295000D03*
%TD*%
D15*
%TO.C,R7*%
X189865000Y-29845000D03*
D14*
X200025000Y-29845000D03*
%TD*%
D16*
%TO.C,D18*%
X64135000Y-74925000D03*
D17*
X64135000Y-77465000D03*
%TD*%
D15*
%TO.C,R20*%
X49530000Y-73660000D03*
D14*
X59690000Y-73660000D03*
%TD*%
D15*
%TO.C,R1*%
X220980000Y-103505000D03*
D14*
X220980000Y-93345000D03*
%TD*%
D16*
%TO.C,D20*%
X103505000Y-74925000D03*
D17*
X103505000Y-77465000D03*
%TD*%
D13*
%TO.C,D14*%
X156845000Y-62865000D03*
D14*
X149225000Y-62865000D03*
%TD*%
D15*
%TO.C,R3*%
X193040000Y-90170000D03*
D14*
X203200000Y-90170000D03*
%TD*%
D13*
%TO.C,D26*%
X77470000Y-81280000D03*
D14*
X69850000Y-81280000D03*
%TD*%
D13*
%TO.C,D32*%
X195580000Y-81280000D03*
D14*
X187960000Y-81280000D03*
%TD*%
D16*
%TO.C,D22*%
X142875000Y-74925000D03*
D17*
X142875000Y-77465000D03*
%TD*%
D19*
%TO.C,H3*%
X36830000Y-29845000D03*
%TD*%
D16*
%TO.C,D3*%
X83820000Y-32380000D03*
D17*
X83820000Y-34920000D03*
%TD*%
D16*
%TO.C,D19*%
X83820000Y-74925000D03*
D17*
X83820000Y-77465000D03*
%TD*%
D22*
%TO.C,SW17*%
X212090000Y-86995000D03*
D23*
X217090000Y-86995000D03*
X214590000Y-86995000D03*
D24*
X208990000Y-79495000D03*
X220190000Y-79495000D03*
D23*
X217090000Y-72495000D03*
X212090000Y-72495000D03*
%TD*%
D16*
%TO.C,D6*%
X142875000Y-32380000D03*
D17*
X142875000Y-34920000D03*
%TD*%
D15*
%TO.C,R4*%
X167640000Y-66040000D03*
D14*
X157480000Y-66040000D03*
%TD*%
D15*
%TO.C,R19*%
X128370000Y-31760000D03*
D14*
X138530000Y-31760000D03*
%TD*%
D15*
%TO.C,R12*%
X88265000Y-74295000D03*
D14*
X98425000Y-74295000D03*
%TD*%
D13*
%TO.C,D15*%
X176530000Y-62865000D03*
D14*
X168910000Y-62865000D03*
%TD*%
D13*
%TO.C,D12*%
X116840000Y-62865000D03*
D14*
X109220000Y-62865000D03*
%TD*%
D15*
%TO.C,R9*%
X186690000Y-74295000D03*
D14*
X196850000Y-74295000D03*
%TD*%
D13*
%TO.C,D11*%
X97790000Y-62865000D03*
D14*
X90170000Y-62865000D03*
%TD*%
D25*
%TO.C,U2*%
X217355000Y-28070000D03*
D26*
X217055000Y-31100000D03*
D25*
X211905000Y-28070000D03*
D26*
X212205000Y-31100000D03*
D21*
X223520000Y-27940000D03*
D27*
X224420000Y-27940000D03*
D21*
X223520000Y-30480000D03*
D27*
X224420000Y-30480000D03*
X224420000Y-33020000D03*
D20*
X223520000Y-33020000D03*
D21*
X223520000Y-35560000D03*
D27*
X224420000Y-35560000D03*
D21*
X223520000Y-38100000D03*
D27*
X224420000Y-38100000D03*
X224420000Y-40640000D03*
D21*
X223520000Y-40640000D03*
D27*
X224420000Y-43180000D03*
D21*
X223520000Y-43180000D03*
D20*
X223520000Y-45720000D03*
D27*
X224420000Y-45720000D03*
D21*
X223520000Y-48260000D03*
D27*
X224420000Y-48260000D03*
D21*
X223520000Y-50800000D03*
D27*
X224420000Y-50800000D03*
D21*
X223520000Y-53340000D03*
D27*
X224420000Y-53340000D03*
X224420000Y-55880000D03*
D21*
X223520000Y-55880000D03*
D27*
X224420000Y-58420000D03*
D20*
X223520000Y-58420000D03*
D27*
X224420000Y-60960000D03*
D21*
X223520000Y-60960000D03*
D27*
X224420000Y-63500000D03*
D21*
X223520000Y-63500000D03*
D27*
X224420000Y-66040000D03*
D21*
X223520000Y-66040000D03*
D27*
X224420000Y-68580000D03*
D21*
X223520000Y-68580000D03*
D27*
X224420000Y-71120000D03*
D20*
X223520000Y-71120000D03*
D27*
X224420000Y-73660000D03*
D21*
X223520000Y-73660000D03*
X223520000Y-76200000D03*
D27*
X224420000Y-76200000D03*
D21*
X205740000Y-76200000D03*
D27*
X204840000Y-76200000D03*
D21*
X205740000Y-73660000D03*
D27*
X204840000Y-73660000D03*
D20*
X205740000Y-71120000D03*
D27*
X204840000Y-71120000D03*
X204840000Y-68580000D03*
D21*
X205740000Y-68580000D03*
X205740000Y-66040000D03*
D27*
X204840000Y-66040000D03*
X204840000Y-63500000D03*
D21*
X205740000Y-63500000D03*
X205740000Y-60960000D03*
D27*
X204840000Y-60960000D03*
D20*
X205740000Y-58420000D03*
D27*
X204840000Y-58420000D03*
D21*
X205740000Y-55880000D03*
D27*
X204840000Y-55880000D03*
X204840000Y-53340000D03*
D21*
X205740000Y-53340000D03*
D27*
X204840000Y-50800000D03*
D21*
X205740000Y-50800000D03*
D27*
X204840000Y-48260000D03*
D21*
X205740000Y-48260000D03*
D27*
X204840000Y-45720000D03*
D20*
X205740000Y-45720000D03*
D27*
X204840000Y-43180000D03*
D21*
X205740000Y-43180000D03*
X205740000Y-40640000D03*
D27*
X204840000Y-40640000D03*
D21*
X205740000Y-38100000D03*
D27*
X204840000Y-38100000D03*
X204840000Y-35560000D03*
D21*
X205740000Y-35560000D03*
D27*
X204840000Y-33020000D03*
D20*
X205740000Y-33020000D03*
D27*
X204840000Y-30480000D03*
D21*
X205740000Y-30480000D03*
D27*
X204840000Y-27940000D03*
D21*
X205740000Y-27940000D03*
D28*
X217170000Y-76870000D03*
D21*
X217170000Y-75970000D03*
D28*
X214630000Y-76870000D03*
D20*
X214630000Y-75970000D03*
D28*
X212090000Y-76870000D03*
D21*
X212090000Y-75970000D03*
%TD*%
D29*
%TO.C,D37*%
X42635000Y-102565000D03*
X42635000Y-100965000D03*
X42635000Y-99365000D03*
X47535000Y-99365000D03*
X47535000Y-100965000D03*
X47535000Y-102565000D03*
%TD*%
D12*
%TO.C,J6*%
X156090000Y-38560000D03*
X148590000Y-38560000D03*
X141090000Y-38560000D03*
X153590000Y-41060000D03*
X143590000Y-41060000D03*
X143590000Y-28560000D03*
X153590000Y-28560000D03*
%TD*%
D29*
%TO.C,D34*%
X194400000Y-102565000D03*
X194400000Y-100965000D03*
X194400000Y-99365000D03*
X199300000Y-99365000D03*
X199300000Y-100965000D03*
X199300000Y-102565000D03*
%TD*%
%TO.C,D36*%
X101055000Y-102565000D03*
X101055000Y-100965000D03*
X101055000Y-99365000D03*
X105955000Y-99365000D03*
X105955000Y-100965000D03*
X105955000Y-102565000D03*
%TD*%
D30*
%TO.C,J2*%
X131450000Y-39660000D03*
X133450000Y-31760000D03*
X131450000Y-34160000D03*
%TD*%
D20*
%TO.C,J3*%
X195605000Y-41245000D03*
D21*
X195605000Y-38705000D03*
X195605000Y-36165000D03*
X195605000Y-33625000D03*
X195605000Y-31085000D03*
X195605000Y-28545000D03*
%TD*%
D12*
%TO.C,J1*%
X179585000Y-38560000D03*
X172085000Y-38560000D03*
X164585000Y-38560000D03*
X177085000Y-41060000D03*
X167085000Y-41060000D03*
X177085000Y-28560000D03*
X167085000Y-28560000D03*
%TD*%
D29*
%TO.C,D35*%
X160110000Y-102565000D03*
X160110000Y-100965000D03*
X160110000Y-99365000D03*
X165010000Y-99365000D03*
X165010000Y-100965000D03*
X165010000Y-102565000D03*
%TD*%
D30*
%TO.C,J5*%
X111765000Y-39660000D03*
X113765000Y-31760000D03*
X111765000Y-34160000D03*
%TD*%
M02*
