M48
; DRILL file {KiCad (6.0.10-0)} date Wednesday, 28 December 2022 at 18:35:25
; FORMAT={-:-/ absolute / inch / decimal}
; #@! TF.CreationDate,2022-12-28T18:35:25+01:00
; #@! TF.GenerationSoftware,Kicad,Pcbnew,(6.0.10-0)
; #@! TF.FileFunction,MixedPlating,1,2
FMAT,2
INCH
; #@! TA.AperFunction,Plated,PTH,ViaDrill
T1C0.0157
; #@! TA.AperFunction,Plated,PTH,ComponentDrill
T2C0.0315
; #@! TA.AperFunction,Plated,PTH,ComponentDrill
T3C0.0354
; #@! TA.AperFunction,Plated,PTH,ComponentDrill
T4C0.0394
; #@! TA.AperFunction,Plated,PTH,ComponentDrill
T5C0.0402
; #@! TA.AperFunction,Plated,PTH,ComponentDrill
T6C0.0551
; #@! TA.AperFunction,Plated,PTH,ComponentDrill
T7C0.0591
; #@! TA.AperFunction,Plated,PTH,ComponentDrill
T8C0.0787
; #@! TA.AperFunction,Plated,PTH,ComponentDrill
T9C0.1260
; #@! TA.AperFunction,NonPlated,NPTH,ComponentDrill
T10C0.0591
; #@! TA.AperFunction,NonPlated,NPTH,ComponentDrill
T11C0.0689
; #@! TA.AperFunction,NonPlated,NPTH,ComponentDrill
T12C0.0709
; #@! TA.AperFunction,NonPlated,NPTH,ComponentDrill
T13C0.1260
; #@! TA.AperFunction,NonPlated,NPTH,ComponentDrill
T14C0.1575
%
G90
G05
T1
X4.575Y-2.3874
X4.7565Y-1.4935
X5.3439Y-1.4215
X5.4Y-1.4038
X5.6423Y-1.8577
X7.175Y-1.85
X7.5Y-2.9
X7.525Y-1.475
X7.55Y-1.6715
X7.65Y-1.7
X7.6943Y-3.075
X7.7416Y-3.9
X7.75Y-3.975
X7.7673Y-2.6577
X7.85Y-2.4
X7.8778Y-2.3722
X7.925Y-1.575
X7.95Y-1.325
X7.95Y-3.075
X7.975Y-3.925
X8.7Y-2.8
X8.725Y-1.5
X8.725Y-2.05
X8.725Y-2.125
X8.775Y-3.175
X8.8057Y-3.2443
T2
X1.925Y-2.475
X1.95Y-1.25
X1.95Y-2.9
X1.975Y-3.2
X2.225Y-2.475
X2.275Y-3.2
X2.35Y-1.25
X2.35Y-2.9
X2.7Y-2.925
X2.725Y-1.25
X2.75Y-3.2
X2.775Y-2.475
X3.05Y-3.2
X3.075Y-2.475
X3.1Y-2.925
X3.125Y-1.25
X3.475Y-2.925
X3.5Y-1.25
X3.525Y-3.2
X3.55Y-2.475
X3.825Y-3.2
X3.85Y-2.475
X3.875Y-2.925
X3.9Y-1.25
X4.25Y-2.925
X4.275Y-1.25
X4.3Y-2.475
X4.3Y-3.2
X4.6Y-2.475
X4.6Y-3.2
X4.65Y-2.925
X4.675Y-1.25
X5.025Y-2.925
X5.0539Y-1.2504
X5.075Y-3.2
X5.1Y-2.475
X5.375Y-3.2
X5.4Y-2.475
X5.425Y-2.925
X5.4539Y-1.2504
X5.8Y-2.925
X5.825Y-1.225
X5.85Y-2.775
X5.85Y-3.2
X5.875Y-2.475
X6.15Y-3.2
X6.175Y-2.475
X6.2Y-2.6
X6.2Y-2.925
X6.225Y-1.225
X6.25Y-2.775
X6.575Y-2.925
X6.6Y-1.25
X6.6Y-2.6
X6.625Y-3.2
X6.65Y-2.475
X6.925Y-3.2
X6.95Y-2.475
X6.975Y-2.925
X7.0Y-1.25
X7.35Y-2.475
X7.35Y-2.925
X7.4Y-3.2
X7.475Y-1.175
X7.6Y-3.55
X7.65Y-2.475
X7.7Y-3.2
X7.75Y-2.925
X7.875Y-1.175
X7.875Y-2.6
X7.875Y-3.0
X8.0Y-3.55
X8.0Y-3.725
X8.0Y-4.025
X8.2004Y-3.7004
X8.2004Y-3.8004
X8.2004Y-3.9004
X8.2004Y-4.0004
X8.5004Y-3.7004
X8.5004Y-3.8004
X8.5004Y-3.9004
X8.5004Y-4.0004
X8.7Y-3.675
X8.7Y-4.075
T3
X1.75Y-1.2748
X1.75Y-1.3748
X1.75Y-2.9498
X1.75Y-3.0498
X2.525Y-1.2748
X2.525Y-1.3748
X2.525Y-2.9498
X2.525Y-3.0498
X3.3Y-1.2748
X3.3Y-1.3748
X3.3Y-2.9498
X3.3Y-3.0498
X4.075Y-1.2748
X4.075Y-1.3748
X4.075Y-2.9498
X4.075Y-3.0498
X4.85Y-1.2748
X4.85Y-1.3748
X4.85Y-2.9498
X4.85Y-3.0498
X5.625Y-1.2748
X5.625Y-1.3748
X5.625Y-2.9498
X5.625Y-3.0498
X6.4Y-1.2748
X6.4Y-1.3748
X6.4Y-2.9498
X6.4Y-3.0498
X7.175Y-1.2748
X7.175Y-1.3748
X7.175Y-2.9498
X7.175Y-3.0498
T4
X7.701Y-1.1238
X7.701Y-1.2238
X7.701Y-1.3238
X7.701Y-1.4238
X7.701Y-1.5238
X7.701Y-1.6238
X7.875Y-1.325
X7.875Y-1.425
X7.875Y-1.525
X7.875Y-1.625
X8.35Y-2.8541
X8.35Y-3.425
X8.4484Y-3.425
X8.5469Y-2.8541
X8.5469Y-3.425
T5
X8.1Y-1.1
X8.1Y-1.2
X8.1Y-1.3
X8.1Y-1.4
X8.1Y-1.5
X8.1Y-1.6
X8.1Y-1.7
X8.1Y-1.8
X8.1Y-1.9
X8.1Y-2.0
X8.1Y-2.1
X8.1Y-2.2
X8.1Y-2.3
X8.1Y-2.4
X8.1Y-2.5
X8.1Y-2.6
X8.1Y-2.7
X8.1Y-2.8
X8.1Y-2.9
X8.1Y-3.0
X8.35Y-2.9909
X8.45Y-2.9909
X8.55Y-2.9909
X8.8Y-1.1
X8.8Y-1.2
X8.8Y-1.3
X8.8Y-1.4
X8.8Y-1.5
X8.8Y-1.6
X8.8Y-1.7
X8.8Y-1.8
X8.8Y-1.9
X8.8Y-2.0
X8.8Y-2.1
X8.8Y-2.2
X8.8Y-2.3
X8.8Y-2.4
X8.8Y-2.5
X8.8Y-2.6
X8.8Y-2.7
X8.8Y-2.8
X8.8Y-2.9
X8.8Y-3.0
T6
X5.5547Y-1.5181
X5.6531Y-1.1244
X5.6531Y-1.6165
X5.85Y-1.5181
X6.0469Y-1.1244
X6.0469Y-1.6165
X6.1453Y-1.5181
X6.4797Y-1.5181
X6.5781Y-1.1244
X6.5781Y-1.6165
X6.775Y-1.5181
X6.9719Y-1.1244
X6.9719Y-1.6165
X7.0703Y-1.5181
T7
X1.6Y-1.9
X1.6Y-3.575
X1.85Y-1.8
X1.85Y-3.475
X2.375Y-1.9
X2.375Y-3.575
X2.625Y-1.8
X2.625Y-3.475
X3.15Y-1.9
X3.15Y-3.575
X3.4Y-1.8
X3.4Y-3.475
X3.925Y-1.9
X3.925Y-3.575
X4.175Y-1.8
X4.175Y-3.475
X4.7Y-1.9
X4.7Y-3.575
X4.95Y-1.8
X4.95Y-3.475
X5.475Y-1.9
X5.475Y-3.575
X5.725Y-1.8
X5.725Y-3.475
X6.25Y-1.9
X6.25Y-3.575
X6.5Y-1.8
X6.5Y-3.475
X7.025Y-1.9
X7.025Y-3.575
X7.275Y-1.8
X7.275Y-3.475
T8
X4.4002Y-1.3449
X4.4002Y-1.5614
X4.4789Y-1.2504
X5.1752Y-1.3449
X5.1752Y-1.5614
X5.2539Y-1.2504
T9
X1.45Y-1.175
X1.45Y-4.1
X9.0Y-4.1
T10
X8.3545Y-1.2244
X8.5455Y-1.2244
T11
X1.55Y-2.0
X1.55Y-3.675
X1.95Y-2.0
X1.95Y-3.675
X2.325Y-2.0
X2.325Y-3.675
X2.725Y-2.0
X2.725Y-3.675
X3.1Y-2.0
X3.1Y-3.675
X3.5Y-2.0
X3.5Y-3.675
X3.875Y-2.0
X3.875Y-3.675
X4.275Y-2.0
X4.275Y-3.675
X4.65Y-2.0
X4.65Y-3.675
X5.05Y-2.0
X5.05Y-3.675
X5.425Y-2.0
X5.425Y-3.675
X5.825Y-2.0
X5.825Y-3.675
X6.2Y-2.0
X6.2Y-3.675
X6.6Y-2.0
X6.6Y-3.675
X6.975Y-2.0
X6.975Y-3.675
X7.375Y-2.0
X7.375Y-3.675
T12
X8.3427Y-1.1051
X8.5573Y-1.1051
T13
X9.0Y-1.175
T14
X1.75Y-2.0
X1.75Y-3.675
X2.525Y-2.0
X2.525Y-3.675
X3.3Y-2.0
X3.3Y-3.675
X4.075Y-2.0
X4.075Y-3.675
X4.85Y-2.0
X4.85Y-3.675
X5.625Y-2.0
X5.625Y-3.675
X6.4Y-2.0
X6.4Y-3.675
X7.175Y-2.0
X7.175Y-3.675
T7
G00X8.228Y-3.1553
M15
G01X8.228Y-3.1041
M16
G05
G00X8.6689Y-3.1553
M15
G01X8.6689Y-3.1041
M16
G05
T0
M30
